<svg id="Layer_1" data-name="Layer 1" xmlns="http://www.w3.org/2000/svg" viewBox="0 0 167 167"><defs><style>.cls-1{fill:#fff;}</style></defs><title>hhs-logo-white</title><path class="cls-1" d="M80.63,0V.21h.31a1,1,0,0,1,.69.25,1.43,1.43,0,0,1,.13.91l-.09,5a1.52,1.52,0,0,1-.14.84.86.86,0,0,1-.75.3h-.29v.23l3.5.07V7.59h-.32A.92.92,0,0,1,83,7.34a1.44,1.44,0,0,1-.14-.91l0-2.27h.82l2.72,3.68h2.21V7.68a2.83,2.83,0,0,1-1.09-.34,4.31,4.31,0,0,1-1-1L84.92,4.05a2.81,2.81,0,0,0,1.54-.71A1.75,1.75,0,0,0,87,2.09,1.63,1.63,0,0,0,86.58,1a2,2,0,0,0-1-.68,7.24,7.24,0,0,0-2-.27h-3ZM78.49.14,72.17.66V.89h.3a.91.91,0,0,1,.75.16c.11.09.18.38.25.88l.48,5a4.69,4.69,0,0,1,0,.75.76.76,0,0,1-.23.3,1.34,1.34,0,0,1-.55.16h-.29v.21l6.32-.53.52-2h-.25A4.41,4.41,0,0,1,78.81,7a1.29,1.29,0,0,1-.57.41,3.39,3.39,0,0,1-1,.18l-1.38.12a1.29,1.29,0,0,1-.48,0,.35.35,0,0,1-.18-.16,1.83,1.83,0,0,1-.11-.61l-.25-2.55,1.81-.15a2.55,2.55,0,0,1,.78,0,.71.71,0,0,1,.38.3,1.86,1.86,0,0,1,.23.7h.23L78,2.57h-.23a1.12,1.12,0,0,1-.27.91,1.4,1.4,0,0,1-.91.27l-1.82.16-.27-3,2.29-.2a4.12,4.12,0,0,1,.86,0,1.17,1.17,0,0,1,.48.31,2.31,2.31,0,0,1,.36.82h.25Zm10.22,0v.2a1.52,1.52,0,0,1,.57.21,1,1,0,0,1,.34.32,4,4,0,0,1,.25.65L92,8.5l.23.05L96,2.32a2.19,2.19,0,0,1,.68-.8,1.68,1.68,0,0,1,.69-.18v-.2l-2.5-.3v.21a.21.21,0,0,0,.11,0,1.11,1.11,0,0,1,.55.28.36.36,0,0,1,.13.34,3.21,3.21,0,0,1-.41.88L92.71,6.8,91.24,2.07a2.46,2.46,0,0,1-.16-.93.38.38,0,0,1,.2-.3A1.6,1.6,0,0,1,92,.73V.53ZM83.9.48A1.83,1.83,0,0,1,85.15,1a1.71,1.71,0,0,1,.45,1.2A1.66,1.66,0,0,1,85,3.37a2.92,2.92,0,0,1-1.77.45.24.24,0,0,1-.12,0h-.2L83,.59A6.91,6.91,0,0,1,83.9.48ZM69.81.87h-.23a1,1,0,0,1-.07.39.6.6,0,0,1-.25.13,1.4,1.4,0,0,1-.5,0,3.63,3.63,0,0,0-1.43-.07,2.58,2.58,0,0,0-1.59.91,1.89,1.89,0,0,0-.38,1.52,1.79,1.79,0,0,0,.41.84,2.49,2.49,0,0,0,.81.59,13.77,13.77,0,0,0,1.66.62,10.14,10.14,0,0,1,1.41.47,1.62,1.62,0,0,1,.61.43,1.48,1.48,0,0,1,.3.55,1.09,1.09,0,0,1-.25.95,1.72,1.72,0,0,1-1.11.59A2.57,2.57,0,0,1,68,8.71a1.69,1.69,0,0,1-1-.53A3.39,3.39,0,0,1,66.36,7l-.23,0,.54,2.61h.23a.59.59,0,0,1,0-.37.28.28,0,0,1,.2-.13,3.31,3.31,0,0,1,.77,0,4.2,4.2,0,0,0,1.5,0,2.73,2.73,0,0,0,1.71-.95,2,2,0,0,0,.41-1.61,2,2,0,0,0-.41-.82,2.3,2.3,0,0,0-.8-.62,13,13,0,0,0-1.72-.61,6.9,6.9,0,0,1-2-.79,1,1,0,0,1-.39-.59,1,1,0,0,1,.23-.89,1.57,1.57,0,0,1,1-.55,2.24,2.24,0,0,1,1.09.07,2.37,2.37,0,0,1,1,.57,3,3,0,0,1,.62,1.14h.22Zm28.81.59-.07.2.3.05a1.15,1.15,0,0,1,.52.25.61.61,0,0,1,.18.27,2.52,2.52,0,0,1-.11.77L98.32,7.91a1.83,1.83,0,0,1-.31.84,1,1,0,0,1-.8.11h-.27v.2l3.41.71.07-.23h-.3a1.57,1.57,0,0,1-.5-.25.52.52,0,0,1-.2-.3,3.88,3.88,0,0,1,.11-.75l1.12-4.93a1.4,1.4,0,0,1,.34-.82.84.84,0,0,1,.77-.11H102l.07-.2L98.67,1.5Zm-39,1.72-2.73.91L57,4.3l.25-.09a.83.83,0,0,1,.75,0c.16.06.32.31.5.77L60,9.16,53.27,5.3,51.16,6l.06.21a2.44,2.44,0,0,1,.53-.14,2,2,0,0,1,.59.07,2,2,0,0,1,.7.32l2,5.06a2,2,0,0,1,.18.84.8.8,0,0,1-.61.5L54.3,13l.09.21,2.7-.91L57,12l-.29.1a.89.89,0,0,1-.75,0c-.14-.07-.3-.34-.46-.8L53.8,6.82,61.09,11h.2L59,4.82A1.67,1.67,0,0,1,58.79,4a.86.86,0,0,1,.61-.5l.27-.11L59.6,3.2Zm46.91,0a4.27,4.27,0,0,0-4.18,3,3.86,3.86,0,0,0,0,2.64A3.6,3.6,0,0,0,105,11.11a3.68,3.68,0,0,0,2,.07,4.44,4.44,0,0,0,1.86-1L108.7,10a4.53,4.53,0,0,1-1.65.84,2.69,2.69,0,0,1-1.46-.07,3,3,0,0,1-1.43-.84,2.47,2.47,0,0,1-.66-1.43,4.42,4.42,0,0,1,.21-1.84,5.82,5.82,0,0,1,1-1.93,2.73,2.73,0,0,1,2.91-.89,2.64,2.64,0,0,1,1.43.95,3.16,3.16,0,0,1,.5,1.91l.18.07.64-2.57-.23-.07a.8.8,0,0,1-.34.34.51.51,0,0,1-.3,0,.64.64,0,0,1-.31-.23,3.86,3.86,0,0,0-1.55-.88,4.43,4.43,0,0,0-1.09-.17ZM112.15,5l-.09.2.28.09a1,1,0,0,1,.56.48,1.55,1.55,0,0,1-.22.89l-2.07,4.66a3.86,3.86,0,0,1-.39.65.44.44,0,0,1-.34.16,2.76,2.76,0,0,1-.57-.06l-.27-.14-.09.2,5.84,2.32,1.45-1.52-.22-.09a6,6,0,0,1-1.16.7,1.44,1.44,0,0,1-.71.09,4.35,4.35,0,0,1-1-.27l-1.3-.5a1.14,1.14,0,0,1-.38-.23.36.36,0,0,1-.09-.22,2.47,2.47,0,0,1,.22-.59l1-2.37,1.68.66a2.61,2.61,0,0,1,.64.39.66.66,0,0,1,.2.43,3.6,3.6,0,0,1-.13.73l.2.07,1.11-2.46-.2-.09a1.28,1.28,0,0,1-.71.7,1.43,1.43,0,0,1-1-.15l-1.66-.66L114,6.25l2.09.82a3,3,0,0,1,.75.41.67.67,0,0,1,.27.47,2.67,2.67,0,0,1-.09.89l.23.09L118,7.3ZM46.33,8l-.16.07L46.56,15a3.8,3.8,0,0,1-.07,1.3,1.6,1.6,0,0,1-.5.47l.09.21,2.34-1.12-.11-.18a1.41,1.41,0,0,1-.78.16.35.35,0,0,1-.29-.2A2,2,0,0,1,47.1,15L47,13.66l2.89-1.34,1,.77a1.91,1.91,0,0,1,.59.61.35.35,0,0,1,0,.37,1.24,1.24,0,0,1-.52.41l.11.2L54,13.29l-.09-.18a1.16,1.16,0,0,1-.82.09,2.83,2.83,0,0,1-1-.63Zm75.08,1a2.16,2.16,0,0,0-.67.08,2.11,2.11,0,0,0-1.34.95,1.84,1.84,0,0,0-.23.89,2.25,2.25,0,0,0,.23.95,12,12,0,0,0,.89,1.45c.43.64.68,1,.77,1.21a1.73,1.73,0,0,1,.18.7,1.21,1.21,0,0,1-.13.59,1.33,1.33,0,0,1-.87.59,1.76,1.76,0,0,1-1.23-.2,2.4,2.4,0,0,1-.93-.77,2,2,0,0,1-.36-1,3.79,3.79,0,0,1,.25-1.29l-.18-.1-1.37,2.34.21.09c.14-.13.2-.22.29-.22a.28.28,0,0,1,.25,0,3.29,3.29,0,0,1,.57.48,6.1,6.1,0,0,0,.59.54,3.3,3.3,0,0,0,.57.34,2.79,2.79,0,0,0,2,.28,2.06,2.06,0,0,0,1.4-1,1.83,1.83,0,0,0,.25-.88,2.29,2.29,0,0,0-.2-.93,12.38,12.38,0,0,0-1-1.48,6.74,6.74,0,0,1-1-1.82,1,1,0,0,1,.1-.68,1.16,1.16,0,0,1,.77-.54,1.58,1.58,0,0,1,1.11.13,2.14,2.14,0,0,1,.82.73,1.9,1.9,0,0,1,.36,1,3.83,3.83,0,0,1-.27,1.25l.21.11,1.34-2.36-.21-.09a.75.75,0,0,1-.32.23.3.3,0,0,1-.27-.05c-.09,0-.2-.14-.34-.32a3.68,3.68,0,0,0-1.09-.91A2.87,2.87,0,0,0,121.41,9ZM46.8,9.8,49.53,12,47,13.2Zm-5.68.91-1.9,1.22,1.18,6.55-6-3.43-2,1.24.14.19a1.34,1.34,0,0,1,.65-.3.83.83,0,0,1,.44.05,1.92,1.92,0,0,1,.54.56l3,4.18a1.8,1.8,0,0,1,.39.75.74.74,0,0,1-.43.64l-.25.16.13.18,2.39-1.54L39.28,21l-.25.16a1,1,0,0,1-.72.18,1.61,1.61,0,0,1-.66-.66l-3.09-4.27,6.5,3.7.16-.09-1.28-7L43,17.23a1.8,1.8,0,0,1,.39.75.74.74,0,0,1-.43.63l-.25.16.13.18,2.89-1.86-.11-.16-.25.14a.84.84,0,0,1-.73.18c-.16,0-.39-.25-.68-.64l-3-4.18a1.74,1.74,0,0,1-.38-.77A.82.82,0,0,1,41,11l.23-.16-.14-.16Zm85.05,4.36a1.14,1.14,0,1,0,0,2.27h.43l.07-.05h0v-.05h0v0h0v-.05h0l.05-.05V17h0v-.23h0V16.2A1.17,1.17,0,0,0,126.17,15.07Zm6.61.36-.14.16.23.18a.73.73,0,0,1,.37.57,1.38,1.38,0,0,1-.46.84l-2,2.34a6.72,6.72,0,0,0-1.14,1.61,2.27,2.27,0,0,0,0,1.5,3.32,3.32,0,0,0,1.29,1.55,3.26,3.26,0,0,0,1.82.79,2.59,2.59,0,0,0,1.5-.27,6,6,0,0,0,1.39-1.27L137.69,21a1.81,1.81,0,0,1,.66-.57.85.85,0,0,1,.84.16l.22.18.14-.18-2.23-1.71-.13.19.23.16a.76.76,0,0,1,.36.61,1.5,1.5,0,0,1-.46.79l-2.11,2.43a4.62,4.62,0,0,1-1.34,1.23,2.07,2.07,0,0,1-1.25.16,3,3,0,0,1-1.34-.61,1.94,1.94,0,0,1-.68-.77,1.55,1.55,0,0,1-.16-.82,2.13,2.13,0,0,1,.36-.91,8.25,8.25,0,0,1,.62-.84l2.27-2.64a2,2,0,0,1,.68-.57.85.85,0,0,1,.75.19l.25.18.14-.16ZM31.29,17.2,29.15,19l.14.16.22-.2a.93.93,0,0,1,.71-.25,1.79,1.79,0,0,1,.77.56l2.23,2.34a5.53,5.53,0,0,1,1.06,1.44,1.71,1.71,0,0,1,0,1.18,2.67,2.67,0,0,1-.84,1.15,2.28,2.28,0,0,1-.93.53,2.54,2.54,0,0,1-.87,0,3.05,3.05,0,0,1-.91-.48c-.31-.25-.56-.5-.79-.72l-2.39-2.5a1.94,1.94,0,0,1-.5-.73.71.71,0,0,1,.32-.68l.23-.21-.16-.13-2.59,2.2.14.16.22-.18a.86.86,0,0,1,.66-.27,1.66,1.66,0,0,1,.82.56l2.14,2.25a5.58,5.58,0,0,0,1.52,1.3,2.59,2.59,0,0,0,1.57.27,4.06,4.06,0,0,0,1.81-.95,3.39,3.39,0,0,0,1.12-1.59,2,2,0,0,0-.05-1.41,6,6,0,0,0-1.11-1.5L31.42,19a1.56,1.56,0,0,1-.5-.71.74.74,0,0,1,.27-.72l.25-.21ZM141,22.54a2.21,2.21,0,0,0-1.57.57,2.3,2.3,0,0,0-.5.8,2.18,2.18,0,0,0-.06.95,10.09,10.09,0,0,0,.41,1.64,13.08,13.08,0,0,1,.38,1.36,2.36,2.36,0,0,1,0,.75,1.16,1.16,0,0,1-.32.5,1.24,1.24,0,0,1-1,.36A1.75,1.75,0,0,1,137.2,29a2.55,2.55,0,0,1-.65-1,1.71,1.71,0,0,1-.05-1,4.14,4.14,0,0,1,.61-1.18l-.16-.16-2,1.88.16.16a.69.69,0,0,1,.36-.16.32.32,0,0,1,.23.09,5.11,5.11,0,0,1,.41.62,5.63,5.63,0,0,0,.38.68,4.91,4.91,0,0,0,.43.48,2.66,2.66,0,0,0,1.8.79,2.3,2.3,0,0,0,1.66-.59,1.94,1.94,0,0,0,.5-.79,2.12,2.12,0,0,0,.09-1,10,10,0,0,0-.46-1.68,6.54,6.54,0,0,1-.41-2,1,1,0,0,1,.3-.64,1.25,1.25,0,0,1,.91-.29,1.39,1.39,0,0,1,1,.43,1.94,1.94,0,0,1,.57.91,1.88,1.88,0,0,1,0,1.05,3.07,3.07,0,0,1-.63,1.13l.16.14,2-1.89-.18-.16A.84.84,0,0,1,144,25a.36.36,0,0,1-.25-.11,1.43,1.43,0,0,1-.25-.43,3.23,3.23,0,0,0-.75-1.14,2.71,2.71,0,0,0-1.68-.73ZM23.86,23.63l-2.32,2.48.18.14L21.9,26a1,1,0,0,1,.48-.29.73.73,0,0,1,.36,0,3.39,3.39,0,0,1,.66.46l1.8,1.47-2.5,2.68h0l-1.8-1.46a3.45,3.45,0,0,1-.54-.54.44.44,0,0,1-.05-.37,1.26,1.26,0,0,1,.25-.47l.21-.21-.18-.14-2.3,2.48.16.14.2-.21a1.24,1.24,0,0,1,.46-.29.73.73,0,0,1,.36,0,2.7,2.7,0,0,1,.66.46l4,3.32a1.79,1.79,0,0,1,.62.66.85.85,0,0,1-.28.72l-.18.21.16.11,2.32-2.48-.18-.13-.19.2a1,1,0,0,1-.47.3.77.77,0,0,1-.37,0,3,3,0,0,1-.66-.45L23,30.63l2.5-2.7,1.88,1.56a2.17,2.17,0,0,1,.62.66.86.86,0,0,1-.28.71l-.18.2.16.14L30,28.72l-.18-.13-.18.2a1.32,1.32,0,0,1-.48.29.73.73,0,0,1-.36,0,3.39,3.39,0,0,1-.66-.46l-4-3.31a2,2,0,0,1-.54-.53.42.42,0,0,1-.05-.36.89.89,0,0,1,.25-.48l.19-.2-.16-.14Zm124.92,5.91-7.09,1.91a3.31,3.31,0,0,1-1.36.2,1.14,1.14,0,0,1-.59-.34l-.19.14,1.64,1.89.18-.12a1.62,1.62,0,0,1-.34-.68.48.48,0,0,1,.14-.34,2.1,2.1,0,0,1,.68-.27l1.34-.37,2.05,2.34-.59,1.1a3.06,3.06,0,0,1-.5.68.48.48,0,0,1-.37.07,1.22,1.22,0,0,1-.57-.38l-.16.13,2,2.36.18-.13A1.08,1.08,0,0,1,145,37a2.54,2.54,0,0,1,.41-1.09l3.47-6.19-.11-.13Zm-1.64,1-1.68,3-1.79-2Zm8.52,1.25h0V32l-.07.14-.09.13-.11.19-.12.18-.13.23L155,33l-.18.25-.18.3-.21.27-.23.32-.22.32-.25.34-.28.36-.29.36-.3.37-.32.38-.34.39-.34.41-.36.41L151,38l-.41.41-.41.43-.43.43-.45.43-.46.44-.47.43-.5.41-.53.43c-4,3.25-49.46,31.17-51.68,32.94S89.3,80.78,86,94.64c-2.71,11.18-4.46,7-13.39,6.65-5.22-.2-19.72-4-18.6,7.18,0,0,1.79-2.49,21.58.17,7.79,1.06,14.16-1.48,16-7.35s4.52-16.06,8.54-21.37c1.86-2.46,38.31-24.86,48.35-30.84,3.66-2.16,15.43-9.27,7.23-17.33ZM17.43,35.4l-1.32,2,.18.12a.63.63,0,0,1,.36-.21.7.7,0,0,1,.53.12,3.31,3.31,0,0,1,1.25,1.93,25,25,0,0,1-3,0,5.84,5.84,0,0,0-.09-1.77,1.48,1.48,0,0,0-.73-.91,1.45,1.45,0,0,0-1.13-.16,1.55,1.55,0,0,0-1,.73,2.07,2.07,0,0,0-.36,1.3,1.66,1.66,0,0,0,1,1.45,2.8,2.8,0,0,0,.73.32,7.76,7.76,0,0,0,1.07.2,4.83,4.83,0,0,0,.27,2.32A2.46,2.46,0,0,0,16.13,44a1.75,1.75,0,0,0,1.41.16,2.3,2.3,0,0,0,1.27-1A3.07,3.07,0,0,0,19.27,42a4.2,4.2,0,0,0-.09-1.54A5.21,5.21,0,0,0,20.56,40a2.13,2.13,0,0,0,.75-.68,1.73,1.73,0,0,0,.28-1.13A2.36,2.36,0,0,0,20.88,37l-.27.12a1,1,0,0,1,.36.65,1.12,1.12,0,0,1-.18.69,1.78,1.78,0,0,1-.66.56,4.68,4.68,0,0,1-1.27.34A10.54,10.54,0,0,0,18,37.45a4.11,4.11,0,0,1-.54-1.21,1.32,1.32,0,0,1,.2-.75l-.2-.09Zm-3.77,1.71a1,1,0,0,1,.56.16,1.47,1.47,0,0,1,.68.81V39.4c-.5-.09-.89-.16-1.14-.23a2.61,2.61,0,0,1-.61-.22,1.33,1.33,0,0,1-.48-.57.87.87,0,0,1,.11-.84.92.92,0,0,1,.59-.41h.19Zm5,3.4h.09a4,4,0,0,1,.05,1.09,1.56,1.56,0,0,1-.25.66,1.32,1.32,0,0,1-1,.66,1.77,1.77,0,0,1-2-1,4.07,4.07,0,0,1-.2-1.34c.57,0,1,.07,1.43.07h1.77ZM164,43.58v.05h0Zm0,.05-.17.34-.21.36-.2.39-.21.41-.22.43-.12.2-.13.23-.14.23-.14.23-.16.22-.16.23-.15.25-.18.23-.21.25-.18.25-.23.22-.23.28-.25.25-.25.25-.27.25-.27.27-.32.25-.32.27-.34.27-.34.28-.39.25-.38.27c-8.14,5.45-39.56,24.95-46.81,29.29a24.9,24.9,0,0,0-8.36,9.09c-1.11,2.29-2.77,8-3.52,17.79-.14,1.88-5.09,5-4.48,6.38s4.37.68,4.23,1.73-1.25,2.29-1.25,3.18,2.23.09,1.68,1.23c-.93,1.86.55,2.27,1.09,3.68s-.18,3,.32,4.15c.91,2,4.13,2.43,9.29,2.32s7.52,3.48,6.39,6.66c-1.48,4.2-4.93,4.13-10.3,7.75s-5.61,8.15-2.47,12c2.38,2.95,11.36,4.38,17-1.34,1.16-1.3-2.54.45-7.93-2.36,0,0-3.5-2.53-1.63-5.91s4.84-4.89,8.15-6.82,7.64-3,7.43-7.2-4.54-4.75-6.29-4.86-4.5.07-6.93,0c-3.68-.18-4.79-1.93-5-9-.07-2.25-3.23-1-1.48-4,.93-1.55-1.75-.93-3.56-1.7-1.55-.71,1.79-4,4.11-7,.72-1-.41-2.22,0-6.84a17.49,17.49,0,0,1,7.63-13c2.64-1.79,14.13-9,17.47-10.86C137.31,72.67,160,58,163.84,55.08c6.78-5.12.62-11,.2-11.45ZM8,45.26,6.75,48.31,7,48.4l.09-.25a1,1,0,0,1,.34-.43.54.54,0,0,1,.34-.12,2.45,2.45,0,0,1,.8.23l2.18.84L9.3,52l-2.21-.86a2.52,2.52,0,0,1-.7-.34.49.49,0,0,1-.16-.32A1,1,0,0,1,6.3,50l.11-.25-.21-.1-1.34,3,.21.09.11-.25A1.3,1.3,0,0,1,5.52,52a.58.58,0,0,1,.34-.14,3.19,3.19,0,0,1,.8.23L11.59,54c.46.18.73.31.8.45a.77.77,0,0,1,0,.75l-.12.25.23.07,1.32-3-.21-.09-.11.28a1.23,1.23,0,0,1-.34.41.55.55,0,0,1-.34.13,2.86,2.86,0,0,1-.77-.23l-2.34-.88,1.45-3.32,2.32.89a2.08,2.08,0,0,1,.79.45.72.72,0,0,1,0,.75l-.11.25.2.09,1.34-3.07-.2-.06-.14.25a1.51,1.51,0,0,1-.32.43.6.6,0,0,1-.34.11,2.47,2.47,0,0,1-.79-.23L9,46.81a4.63,4.63,0,0,1-.71-.34.44.44,0,0,1-.16-.34.87.87,0,0,1,.07-.53l.12-.25-.23-.09ZM4.41,54,2.55,60.12l1.81.59.07-.2A1.83,1.83,0,0,1,3.66,60a1,1,0,0,1-.27-.61,2.36,2.36,0,0,1,.13-.75l.3-.91,6,1.66a2,2,0,0,1,.82.36.75.75,0,0,1,.09.75l-.09.25.23.07,1-3.16-.22-.07-.07.25a.89.89,0,0,1-.46.59,1.81,1.81,0,0,1-.95-.09l-6-1.65.32-1a1.71,1.71,0,0,1,.38-.7,1.39,1.39,0,0,1,.64-.32,3.14,3.14,0,0,1,.75,0l.07-.2Zm3.91,7.6-.09.16a4.25,4.25,0,0,1,1,.79,1.45,1.45,0,0,1,.34.73,3.87,3.87,0,0,1-.12,1.27l-.13.55a3.78,3.78,0,0,1-.23.86.58.58,0,0,1-.23.18,2.06,2.06,0,0,1-.7,0l-5.09-1a2.67,2.67,0,0,1-.87-.27A.75.75,0,0,1,2,64.49,2.54,2.54,0,0,1,2,63.62H1.8L1.05,67h.2l.07-.29a.9.9,0,0,1,.41-.59,1.7,1.7,0,0,1,1,0l5.23,1a1.77,1.77,0,0,1,.84.27.77.77,0,0,1,.21.75l-.07.28h.22l1.25-5.86-2-1.07Zm149.8,5h-.07l-.14.11-.16.16-.2.16-.21.18-.25.2-.25.21-.29.25-.3.25-.31.25-.35.27-.34.3-.36.29-.39.3-.38.32-.41.31-.39.32-.84.64-.86.63-.84.64-.87.59-.4.3-.44.27-.41.27-.38.27c-4.48,2.8-24.57,13.48-29,17.16S115,98.07,115,98.07l-.73,9.11S111.47,110,111.1,111s1.87,1.23,3.52,2.09-.31,1.68.37,2.48c1.32,1.47,2.34.27,1.45,2.79-.13.39,1.12,1.57,1,2.23-.23,1-.8,1.75.18,2.68s4.7,2.82,12.93,1.13c8.93-1.84,14.79,5.12,19.24,6.3,1.53.38,6.57,2,14.52-4.21,3.43-2.65-2.11-.25-10.06-3.58-8.48-3.55-11-3.78-16.72-2.71-4.89.91-8.5,1.71-10.41,1.14-1.64-.5-.27-2.93-1.5-3.34-2.45-.82-.77-2-2.23-2.8s-.61-1.13-.66-2.77c0-1.14-1.27-.82-3.06-1.82-1.39-.79,1.91-2.25,2.38-3.41.55-1.43-.13-3.43.23-6.36.66-5.16,8.36-8.77,12.45-11C139.21,87.45,152,79.66,155,77.63c7.06-4.72,3.36-11.22,3.36-11.22ZM8.77,68.92a1,1,0,0,1-.34.7,3.11,3.11,0,0,1-1.13.5L.21,72.23v.19l6.45,3.31a3.81,3.81,0,0,1,1.11.75,1.19,1.19,0,0,1,.18.64h.23l.25-2.43H8.2a1.38,1.38,0,0,1-.25.7.38.38,0,0,1-.36.14,1.86,1.86,0,0,1-.68-.25l-1.23-.64.3-3,1.2-.36a3.61,3.61,0,0,1,.87-.16.41.41,0,0,1,.31.21,1,1,0,0,1,.12.63H8.7L9,69H8.77ZM5.5,71.78l-.25,2.66L2.07,72.78Zm.66,5.79v.25a5.18,5.18,0,0,1,1.14.71,1.47,1.47,0,0,1,.38.57,4.21,4.21,0,0,1,.12,1v1.3a.79.79,0,0,1-.07.43.49.49,0,0,1-.2.18,3.64,3.64,0,0,1-.66,0H4.18V80.32a1.48,1.48,0,0,1,.09-.72.66.66,0,0,1,.34-.32,2,2,0,0,1,.75-.18v-.21H2.52v.22a1.34,1.34,0,0,1,1,.3,1.44,1.44,0,0,1,.23.88V82H.52l0-2a2.06,2.06,0,0,1,.07-.82.89.89,0,0,1,.36-.43,2.9,2.9,0,0,1,.91-.27v-.23L0,78.3l.07,6H.3V84a.93.93,0,0,1,.22-.68,1.91,1.91,0,0,1,1-.16l5.36-.06a3.29,3.29,0,0,1,.77.06.54.54,0,0,1,.32.25,1,1,0,0,1,.14.5v.28H8.3l-.07-6-2.07-.64ZM8.3,84.75H8.07V85a.85.85,0,0,1-.09.54.38.38,0,0,1-.23.25A2,2,0,0,1,7,86l-5.29.57a3.57,3.57,0,0,1-.8,0,.47.47,0,0,1-.32-.21,1,1,0,0,1-.2-.5v-.27H.16l.41,3.29H.82v-.25a1.13,1.13,0,0,1,.07-.55A.85.85,0,0,1,1,87.82a4.57,4.57,0,0,1,.82-.16l2.34-.25L4.64,91l-2.37.27a3.48,3.48,0,0,1-.79,0,.83.83,0,0,1-.32-.2,1,1,0,0,1-.2-.5v-.28H.74l.4,3.27h.23v-.28a.85.85,0,0,1,.09-.54.45.45,0,0,1,.22-.25,2.77,2.77,0,0,1,.8-.16l5.29-.59a1.67,1.67,0,0,1,.94,0,.75.75,0,0,1,.38.63l.05.3h.22L9,89.4H8.73v.27a1.13,1.13,0,0,1-.07.55.59.59,0,0,1-.22.25,3.16,3.16,0,0,1-.8.16l-2.5.27-.45-3.54,2.5-.28a1.83,1.83,0,0,1,.93,0,.87.87,0,0,1,.38.66V88h.22l-.4-3.28ZM4,98.09l-1.72.52,1.57,5.57.2-.07L4,103.86a1.23,1.23,0,0,1,0-.54.58.58,0,0,1,.18-.3,3.09,3.09,0,0,1,.78-.25L10,101.48a2,2,0,0,1,.94-.09.84.84,0,0,1,.47.61l.07.25h.23L10.84,99h-.2l.06.27a1,1,0,0,1,0,.54.52.52,0,0,1-.18.3,3,3,0,0,1-.77.25L7.23,101l-.39-1.36a1,1,0,0,1,0-.59.63.63,0,0,1,.23-.38,1.4,1.4,0,0,1,.65-.28l-.06-.2L5,98.89v.22a1.7,1.7,0,0,1,1,0,1,1,0,0,1,.41.63l.39,1.37-3.11.77-.48-1.64a2.75,2.75,0,0,1-.11-.9,1.11,1.11,0,0,1,.22-.55,2.78,2.78,0,0,1,.68-.5Zm5.83,6a5,5,0,0,0-1.71.3,4.16,4.16,0,0,0-2.43,2v2.87a3.86,3.86,0,0,0,2,2.09,4.47,4.47,0,0,0,3.46.11,4.32,4.32,0,0,0,2.54-2,3.39,3.39,0,0,0,.14-2.9,3.79,3.79,0,0,0-2.18-2.12A4.33,4.33,0,0,0,9.78,104Zm.93,1.07a2.66,2.66,0,0,1,.93.14,2.32,2.32,0,0,1,1.52,1.38,1.89,1.89,0,0,1-.18,1.8,4.74,4.74,0,0,1-2.59,1.77,5,5,0,0,1-3.09.27H6.91l-.07,0H6.69v-.11h0v-.06h0v-.07h0v-.07a2,2,0,0,1,.14-1.89,4.83,4.83,0,0,1,2.65-1.77,6.26,6.26,0,0,1,2-.41Zm38,4.57c-4.71,0-8.08,2.15-7.39,6.32h.14l.09-.07.14-.07h.13l.16-.07.18-.09.21-.07.23-.07h.22l.28-.07h.59l.34-.05h2l.48.05h.77l.27.07h.55l.29.07.3.09.29.07.32.09.3.09.34.09.32.11.34.12.34.11.34.14.36.11.37.16c7.79,3.16,28.37,12.45,33.83,16.45,3.34,2.45,12.65,6.66,10,11.23S80.76,151,83.35,160.82s16.38,5.62,18.24,3.16-6.13,1.43-8.93-5.59c-2.22-5.61,1.66-9.33,7.07-13,2.59-1.75,6.11-3.16,5.57-7.7-.37-3.16-5.94-5.61-11.53-8.75s-27.15-13.31-35.71-17.18a23,23,0,0,0-9.34-2.11Zm-31.47,5.13-.21.12.16.25a.91.91,0,0,1,.12.7,1.86,1.86,0,0,1-.78.55l-5.49,2.84-.57-1a1.61,1.61,0,0,1-.23-.77.93.93,0,0,1,.2-.64,2.05,2.05,0,0,1,.55-.47l-.09-.21-1.66,1,3.2,5.56L14.2,122l-.11-.21a1.8,1.8,0,0,1-.91.19,1.14,1.14,0,0,1-.66-.25,2.84,2.84,0,0,1-.45-.64l-.48-.82,5.52-2.82a2.27,2.27,0,0,1,.84-.29.84.84,0,0,1,.64.48l.14.25.2-.12Zm3.54,5.66-5.72,3.71a1.82,1.82,0,0,1-.8.36.83.83,0,0,1-.68-.41l-.16-.23-.2.12,1.63,2.25.18-.14-.15-.2a.87.87,0,0,1-.21-.69c0-.16.3-.38.68-.66l3.91-2.5L17,129.24,18.32,131l.18-.11a1.79,1.79,0,0,1-.27-.44,2.62,2.62,0,0,1-.09-.56,2.87,2.87,0,0,1,.13-.71l4.73-3.1a2.36,2.36,0,0,1,.79-.36.79.79,0,0,1,.68.41l.19.23.18-.12L23.2,124l-.18.14.16.23a.74.74,0,0,1,.18.68c0,.16-.25.36-.68.63l-4.16,2.71,2.39-7.73-.12-.18Zm4.91,6.73-2,.75.16.18a4.09,4.09,0,0,1,1.3-.18,1.6,1.6,0,0,1,.68.18,4,4,0,0,1,.73.69l.91,1a.86.86,0,0,1,.23.39.31.31,0,0,1,0,.23,2.73,2.73,0,0,1-.47.43l-2.05,1.66L24,131.24a1.69,1.69,0,0,1-.41-.61.61.61,0,0,1,0-.46,2.48,2.48,0,0,1,.48-.59l-.16-.15-2.16,1.72.16.16a1.52,1.52,0,0,1,1-.34c.2,0,.45.23.77.57l1.18,1.29-2.48,2-1.45-1.61a2.83,2.83,0,0,1-.5-.69.83.83,0,0,1,0-.54,2.52,2.52,0,0,1,.5-.75l-.14-.18-1.34,1.18,4.14,4.54.15-.13-.18-.23a.83.83,0,0,1-.29-.66,1.87,1.87,0,0,1,.63-.68l4.07-3.3a4.66,4.66,0,0,1,.66-.43.65.65,0,0,1,.39,0,1.12,1.12,0,0,1,.45.32l.2.21.16-.14Zm4.43,5-.16.14.21.18a.75.75,0,0,1,.34.64c0,.16-.16.41-.5.77l-3.66,3.73a2.16,2.16,0,0,1-.68.52A.89.89,0,0,1,25,138l-.21-.19-.16.16,1.71,1.5,6.52-2.56-2.18,6.31,1.72,1.5.14-.16A1.7,1.7,0,0,1,32,144a.72.72,0,0,1,0-.41,2,2,0,0,1,.43-.62l3.66-3.72c.32-.32.55-.5.71-.52a.81.81,0,0,1,.75.25l.2.18.16-.14-2.11-1.84-.14.16.2.18a.86.86,0,0,1,.34.64c0,.13-.18.38-.52.75L32,142.68l2.38-6.79-.14-.14-7,2.77,3.75-3.8c.3-.32.52-.5.68-.52a.84.84,0,0,1,.78.25l.2.18.16-.16-2.57-2.23Zm9.63,7.93-.13.18.25.16a1,1,0,0,1,.43.59,1.57,1.57,0,0,1-.43.8l-3.68,4.79-1-.63a1.79,1.79,0,0,1-.57-.59,1.25,1.25,0,0,1-.09-.66,2.26,2.26,0,0,1,.28-.66l-.19-.14-1,1.55,5.43,3.7,1.2-1.43-.18-.11a1.81,1.81,0,0,1-.73.52,1.19,1.19,0,0,1-.7,0,3.17,3.17,0,0,1-.7-.38l-.8-.57,3.68-4.77a2.21,2.21,0,0,1,.61-.61.89.89,0,0,1,.8.18l.23.16.13-.19-2.84-1.93Zm3.84,2.71-.11.18a2.09,2.09,0,0,1,.77.79,3.71,3.71,0,0,1,.32,1.35l.27,2.74a3.14,3.14,0,0,0-1.72-.09,1.81,1.81,0,0,0-1.09.82,1.51,1.51,0,0,0-.25,1.2,2,2,0,0,0,.54,1.07A7.38,7.38,0,0,0,43.94,152l2.57,1.45.11-.2-.25-.14a.77.77,0,0,1-.48-.54,1.49,1.49,0,0,1,.34-.86l2.71-4.32a1.91,1.91,0,0,1,.57-.66.82.82,0,0,1,.79.07l.28.16.11-.18-3-1.69-.12.19.28.16a.76.76,0,0,1,.45.52,1.92,1.92,0,0,1-.34.86l-1.23,2-.14-.09a.24.24,0,0,1-.15-.09l-.41-.22L45.57,144l-1.91-1Zm7.36,4-.09.2a1.1,1.1,0,0,1,.59.55,2.7,2.7,0,0,1,.16,1.16l-.21,7,.19.07,5.43-4.68a3.88,3.88,0,0,1,1.11-.77,1.28,1.28,0,0,1,.7.07l.09-.21-2.36-1-.09.18a1.72,1.72,0,0,1,.64.46.45.45,0,0,1,0,.36,2.29,2.29,0,0,1-.48.55l-1,.86-2.93-1.23v-1.18a2.25,2.25,0,0,1,.12-.81.36.36,0,0,1,.31-.23,1.15,1.15,0,0,1,.66.11l.09-.18Zm-6.15,1.52a3.06,3.06,0,0,1,1.35.43l.14.09h0l-1.75,2.75a4.28,4.28,0,0,1-.86-.34,1.58,1.58,0,0,1-.84-1,1.54,1.54,0,0,1,.22-1.25,1.76,1.76,0,0,1,1.58-.79Zm16.28,2.48-.07.2.3.09a.91.91,0,0,1,.57.46,1.85,1.85,0,0,1-.16.9l-.8,2.14c-.22-.14-.43-.25-.63-.36a3.56,3.56,0,0,0-.62-.23,2.76,2.76,0,0,0-2,0,2.11,2.11,0,0,0-1.16,1.27,2,2,0,0,0,0,1.27,2.37,2.37,0,0,0,.77,1,5.62,5.62,0,0,0,1.57.73l2.84.93.07-.2-.3-.09a.85.85,0,0,1-.57-.46,1.36,1.36,0,0,1,.16-.88l1.73-4.77a2,2,0,0,1,.41-.75.92.92,0,0,1,.79-.07l.3.09.09-.18L61.1,150.9Zm-8.4,0,2.58,1.1-2.68,2.32.09-3.41Zm13,1.36L64.49,154l.27.07a4.38,4.38,0,0,1,1-.87,1.65,1.65,0,0,1,.68-.22,5.59,5.59,0,0,1,1,.13l1.34.32a1,1,0,0,1,.43.16.32.32,0,0,1,.12.2,2.76,2.76,0,0,1-.1.64l-.63,2.45-1.78-.38a1.76,1.76,0,0,1-.7-.27,1.05,1.05,0,0,1-.27-.39,3.14,3.14,0,0,1,0-.75h-.23L65,157.67h.2a1.49,1.49,0,0,1,.57-.82,1.89,1.89,0,0,1,1,0l1.75.41-.75,3-2.21-.5a5.25,5.25,0,0,1-.79-.27,1,1,0,0,1-.37-.45,2.23,2.23,0,0,1-.07-.89h-.25l-.31,1.67,6.15,1.39V161l-.27-.07a1,1,0,0,1-.64-.36,1.52,1.52,0,0,1,.07-.94l1.25-4.9a2.85,2.85,0,0,1,.25-.69.37.37,0,0,1,.31-.2.93.93,0,0,1,.57,0l.3.07v-.21l-6.15-1.41Zm10.35,2a4.21,4.21,0,0,0-2.58.85,3.79,3.79,0,0,0-1.39,2.54,3.88,3.88,0,0,0,.3,2.18,3.35,3.35,0,0,0,1.36,1.5,8.07,8.07,0,0,0,2.73.73l3.31.39v-.23h-.3a.93.93,0,0,1-.66-.34,1.42,1.42,0,0,1,0-.91l.66-5a1.83,1.83,0,0,1,.25-.82.81.81,0,0,1,.77-.22h.29v-.23l-3.64-.43a8.4,8.4,0,0,0-1.12-.05Zm-16.49.19a1.25,1.25,0,0,1,.43.07,3.2,3.2,0,0,1,.39.16h.05l-1.11,3.06a3.38,3.38,0,0,1-.78-.16,1.54,1.54,0,0,1-.77-.47,1.4,1.4,0,0,1-.36-.8,2,2,0,0,1,.11-1,1.73,1.73,0,0,1,.84-1,1.63,1.63,0,0,1,.75-.18Zm17.25.27h1.43l.09.05h.09l-.86,6.54a6.53,6.53,0,0,1-1.25,0,3.17,3.17,0,0,1-2.34-.85,3.29,3.29,0,0,1-.59-2.61,3.53,3.53,0,0,1,1.25-2.41,3.1,3.1,0,0,1,2.09-.66Z"/></svg>